<svg xmlns="http://www.w3.org/2000/svg" width="312" height="50">
    <path
        style="fill:#cd7925"
        d="M39.661 10.45l2.6-4.644-1.619-.917-2.6 4.644zm-2.292 13.414l-1.619-.917-2.444 4.339 1.619.917zm-6.447-1.681l1.619.917 2.6-4.644-1.619-.917zM42.38 11.122l-2.444 4.339 1.619.917 2.444-4.339zm-5.775 10.266l1.619.917 2.444-4.339-1.619-.917zm-2.567 8.4l-1.619-.917-1.039 1.864-1.619-2.658 1.864-3.3-1.619-.917-1.344 2.383-1.619-2.658L39.752.917 38.133 0 30.8 13.047a9.107 9.107 0 00-.917-.061h-.092a6.4 6.4 0 00-2.719.611l-.275.153a4.412 4.412 0 01-1.894.367h-.092a4.564 4.564 0 01-1.8-.367l-.244-.153a5.931 5.931 0 00-2.842-.642h-.092a5.712 5.712 0 00-2.719.642l-.214.153a4.424 4.424 0 01-1.894.367h-.092a4.1 4.1 0 01-1.8-.367l-.153-.122-.061-.028a5.765 5.765 0 00-2.75-.642h-.092a5.552 5.552 0 00-2.842.642l.947 1.619a4.412 4.412 0 011.894-.367h.061a4.1 4.1 0 011.8.367l.153.122.061.031a5.765 5.765 0 002.75.642h.092a5.552 5.552 0 002.842-.642l.214-.153a4.1 4.1 0 011.8-.367h.061a4.506 4.506 0 011.894.367l.244.153a5.712 5.712 0 002.719.642h.122a5.8 5.8 0 002.813-.614l.275-.153a4.049 4.049 0 011.8-.367l-1.833 3.239a6.679 6.679 0 00-2.261-.428h-.183a6.4 6.4 0 00-2.719.611l-.275.153a4.412 4.412 0 01-1.894.367H20.5a4.564 4.564 0 01-1.8-.367l-.244-.153a5.931 5.931 0 00-2.842-.642h-.092a5.712 5.712 0 00-2.719.642l-.214.153a4.422 4.422 0 01-1.894.367H10.6a4.1 4.1 0 01-1.8-.367l-.153-.122-.061-.031a5.766 5.766 0 00-2.75-.642h-.092a5.552 5.552 0 00-2.842.642l.947 1.619a4.412 4.412 0 011.894-.367h.061a4.1 4.1 0 011.8.367l.153.122.061.031a5.765 5.765 0 002.75.642h.092a5.552 5.552 0 002.842-.642l.214-.153a4.1 4.1 0 011.8-.367h.092a4.351 4.351 0 011.894.367l.244.153a5.712 5.712 0 002.719.642h.122a5.8 5.8 0 002.811-.611l.275-.153a4.114 4.114 0 011.833-.367h.061a5.091 5.091 0 011.436.214l-1.681 2.964H0v1.864h14.666l12.1 19.8 1.589-.978L16.867 24.6h3.239l13.016 21.45 1.589-.978L22.275 24.6h3.178l13.23 21.694 1.589-.978-7.792-12.775zm3.025-18.547l-2.6 4.644 1.619.917 2.6-4.644z"
    />
    <text 
        transform="translate(56 38)" 
        fill="#fff" 
        font-size="39"
        font-family="FuturaPT-ExtraBold,Futura PT" font-weight="800"
    >
        <tspan x="0" y="0">ABC Products</tspan>
    </text>
</svg>